<svg width="586" height="121" viewBox="0 0 586 121" fill="none" xmlns="http://www.w3.org/2000/svg">
<path d="M0 0.909088H31.4545L53.0909 53.6364H54.1818L75.8182 0.909088H107.273V94H82.5455V40.1818H81.8182L61.0909 93.2727H46.1818L25.4545 39.8182H24.7273V94H0V0.909088ZM134.886 120.182C132.008 120.182 129.265 119.955 126.659 119.5C124.053 119.076 121.765 118.485 119.795 117.727L125.25 99.9091C127.311 100.636 129.189 101.106 130.886 101.318C132.614 101.53 134.083 101.409 135.295 100.955C136.538 100.5 137.432 99.6364 137.977 98.3636L138.523 97.0909L113.977 24.1818H140.159L151.432 72.5455H152.159L163.614 24.1818H189.977L164.523 99.8182C163.25 103.667 161.402 107.121 158.977 110.182C156.583 113.273 153.432 115.712 149.523 117.5C145.614 119.288 140.735 120.182 134.886 120.182ZM196.75 94V0.909088H237.114C244.205 0.909088 250.159 1.86363 254.977 3.77273C259.826 5.68182 263.477 8.37878 265.932 11.8636C268.417 15.3485 269.659 19.4545 269.659 24.1818C269.659 27.6061 268.902 30.7273 267.386 33.5455C265.902 36.3636 263.811 38.7273 261.114 40.6364C258.417 42.5151 255.265 43.8182 251.659 44.5455V45.4545C255.659 45.6061 259.295 46.6212 262.568 48.5C265.841 50.3485 268.447 52.9091 270.386 56.1818C272.326 59.4242 273.295 63.2424 273.295 67.6364C273.295 72.7273 271.962 77.2576 269.295 81.2273C266.659 85.197 262.902 88.3182 258.023 90.5909C253.144 92.8636 247.326 94 240.568 94H196.75ZM222.023 73.8182H233.841C238.083 73.8182 241.265 73.0303 243.386 71.4545C245.508 69.8485 246.568 67.4848 246.568 64.3636C246.568 62.1818 246.068 60.3333 245.068 58.8182C244.068 57.303 242.644 56.1515 240.795 55.3636C238.977 54.5758 236.78 54.1818 234.205 54.1818H222.023V73.8182ZM222.023 38.5455H232.386C234.598 38.5455 236.553 38.197 238.25 37.5C239.947 36.803 241.265 35.803 242.205 34.5C243.174 33.1667 243.659 31.5455 243.659 29.6364C243.659 26.7576 242.629 24.5606 240.568 23.0455C238.508 21.5 235.902 20.7273 232.75 20.7273H222.023V38.5455ZM316.25 95.2727C308.674 95.2727 302.189 93.7727 296.795 90.7727C291.402 87.7424 287.265 83.5303 284.386 78.1364C281.508 72.7121 280.068 66.4242 280.068 59.2727C280.068 52.1212 281.508 45.8485 284.386 40.4545C287.265 35.0303 291.402 30.8182 296.795 27.8182C302.189 24.7879 308.674 23.2727 316.25 23.2727C323.826 23.2727 330.311 24.7879 335.705 27.8182C341.098 30.8182 345.235 35.0303 348.114 40.4545C350.992 45.8485 352.432 52.1212 352.432 59.2727C352.432 66.4242 350.992 72.7121 348.114 78.1364C345.235 83.5303 341.098 87.7424 335.705 90.7727C330.311 93.7727 323.826 95.2727 316.25 95.2727ZM316.432 76.7273C318.553 76.7273 320.386 76.0152 321.932 74.5909C323.477 73.1667 324.674 71.1364 325.523 68.5C326.371 65.8636 326.795 62.7273 326.795 59.0909C326.795 55.4242 326.371 52.2879 325.523 49.6818C324.674 47.0455 323.477 45.0152 321.932 43.5909C320.386 42.1667 318.553 41.4545 316.432 41.4545C314.189 41.4545 312.265 42.1667 310.659 43.5909C309.053 45.0152 307.826 47.0455 306.977 49.6818C306.129 52.2879 305.705 55.4242 305.705 59.0909C305.705 62.7273 306.129 65.8636 306.977 68.5C307.826 71.1364 309.053 73.1667 310.659 74.5909C312.265 76.0152 314.189 76.7273 316.432 76.7273ZM396.25 95.2727C388.674 95.2727 382.189 93.7727 376.795 90.7727C371.402 87.7424 367.265 83.5303 364.386 78.1364C361.508 72.7121 360.068 66.4242 360.068 59.2727C360.068 52.1212 361.508 45.8485 364.386 40.4545C367.265 35.0303 371.402 30.8182 376.795 27.8182C382.189 24.7879 388.674 23.2727 396.25 23.2727C403.826 23.2727 410.311 24.7879 415.705 27.8182C421.098 30.8182 425.235 35.0303 428.114 40.4545C430.992 45.8485 432.432 52.1212 432.432 59.2727C432.432 66.4242 430.992 72.7121 428.114 78.1364C425.235 83.5303 421.098 87.7424 415.705 90.7727C410.311 93.7727 403.826 95.2727 396.25 95.2727ZM396.432 76.7273C398.553 76.7273 400.386 76.0152 401.932 74.5909C403.477 73.1667 404.674 71.1364 405.523 68.5C406.371 65.8636 406.795 62.7273 406.795 59.0909C406.795 55.4242 406.371 52.2879 405.523 49.6818C404.674 47.0455 403.477 45.0152 401.932 43.5909C400.386 42.1667 398.553 41.4545 396.432 41.4545C394.189 41.4545 392.265 42.1667 390.659 43.5909C389.053 45.0152 387.826 47.0455 386.977 49.6818C386.129 52.2879 385.705 55.4242 385.705 59.0909C385.705 62.7273 386.129 65.8636 386.977 68.5C387.826 71.1364 389.053 73.1667 390.659 74.5909C392.265 76.0152 394.189 76.7273 396.432 76.7273ZM465.159 77.4545L465.341 47.6364H468.614L485.523 24.1818H513.705L485.341 60.7273H478.25L465.159 77.4545ZM442.614 94V0.909088H467.705V94H442.614ZM485.705 94L469.705 66.3636L486.068 48.5455L514.432 94H485.705ZM584.057 46.9091H560.966C560.845 45.4848 560.345 44.2576 559.466 43.2273C558.587 42.197 557.451 41.4091 556.057 40.8636C554.693 40.2879 553.178 40 551.511 40C549.36 40 547.511 40.3939 545.966 41.1818C544.42 41.9697 543.663 43.0909 543.693 44.5455C543.663 45.5758 544.102 46.5303 545.011 47.4091C545.951 48.2879 547.754 48.9697 550.42 49.4545L564.602 52C571.754 53.303 577.072 55.5 580.557 58.5909C584.072 61.6515 585.845 65.7576 585.875 70.9091C585.845 75.8788 584.36 80.197 581.42 83.8636C578.511 87.5 574.527 90.3182 569.466 92.3182C564.436 94.2879 558.693 95.2727 552.239 95.2727C541.572 95.2727 533.223 93.0909 527.193 88.7273C521.193 84.3636 517.845 78.6061 517.148 71.4545H542.057C542.39 73.6667 543.481 75.3788 545.33 76.5909C547.208 77.7727 549.572 78.3636 552.42 78.3636C554.723 78.3636 556.617 77.9697 558.102 77.1818C559.617 76.3939 560.39 75.2727 560.42 73.8182C560.39 72.4848 559.723 71.4242 558.42 70.6364C557.148 69.8485 555.148 69.2121 552.42 68.7273L540.057 66.5455C532.936 65.303 527.602 62.9394 524.057 59.4545C520.511 55.9697 518.754 51.4848 518.784 46C518.754 41.1515 520.027 37.0455 522.602 33.6818C525.208 30.2879 528.92 27.7121 533.739 25.9545C538.587 24.1667 544.33 23.2727 550.966 23.2727C561.057 23.2727 569.011 25.3636 574.83 29.5455C580.678 33.7273 583.754 39.5151 584.057 46.9091Z" fill="#D4D4D5"/>
</svg>
